<mxfile host="app.diagrams.net" modified="2025-02-09T20:51:13.536Z" agent="Mozilla/5.0 (Macintosh; Intel Mac OS X 10.15; rv:135.0) Gecko/20100101 Firefox/135.0" etag="okN6AxevxdzPK2WgAUKB" version="24.0.8" type="github">
  <diagram name="Seite-1" id="8sGeOCVNoaMBTDCN_T8K">
    <mxGraphModel dx="387" dy="565" grid="1" gridSize="10" guides="1" tooltips="1" connect="1" arrows="1" fold="1" page="1" pageScale="1" pageWidth="827" pageHeight="1169" math="0" shadow="0">
      <root>
        <mxCell id="0" />
        <mxCell id="1" parent="0" />
        <mxCell id="s2aUtu2bZZ-ZvJ1KElSe-29" value="" style="endArrow=none;html=1;rounded=0;fillColor=#fff2cc;strokeColor=#d6b656;edgeStyle=orthogonalEdgeStyle;jumpStyle=arc;" edge="1" parent="1" source="s2aUtu2bZZ-ZvJ1KElSe-68">
          <mxGeometry width="50" height="50" relative="1" as="geometry">
            <mxPoint x="320" y="80.01999999999998" as="sourcePoint" />
            <mxPoint x="320" y="0.01999999999998181" as="targetPoint" />
            <Array as="points">
              <mxPoint x="400" y="250" />
              <mxPoint x="400" y="110" />
              <mxPoint x="320" y="110" />
            </Array>
          </mxGeometry>
        </mxCell>
        <mxCell id="s2aUtu2bZZ-ZvJ1KElSe-12" value="" style="endArrow=none;html=1;rounded=0;fillColor=#fff2cc;strokeColor=#d6b656;edgeStyle=orthogonalEdgeStyle;jumpStyle=arc;" edge="1" parent="1" source="s2aUtu2bZZ-ZvJ1KElSe-68" target="s2aUtu2bZZ-ZvJ1KElSe-11">
          <mxGeometry width="50" height="50" relative="1" as="geometry">
            <mxPoint x="400" y="260" as="sourcePoint" />
            <mxPoint x="380" y="530" as="targetPoint" />
            <Array as="points">
              <mxPoint x="400" y="270" />
              <mxPoint x="400" y="510" />
            </Array>
          </mxGeometry>
        </mxCell>
        <mxCell id="s2aUtu2bZZ-ZvJ1KElSe-14" value="" style="endArrow=none;html=1;rounded=0;strokeColor=#994C00;fillColor=#a0522d;edgeStyle=orthogonalEdgeStyle;jumpStyle=arc;" edge="1" parent="1" source="s2aUtu2bZZ-ZvJ1KElSe-10" target="s2aUtu2bZZ-ZvJ1KElSe-15">
          <mxGeometry width="50" height="50" relative="1" as="geometry">
            <mxPoint x="450" y="400" as="sourcePoint" />
            <mxPoint x="450" y="320" as="targetPoint" />
            <Array as="points">
              <mxPoint x="450" y="440" />
              <mxPoint x="450" y="350" />
            </Array>
          </mxGeometry>
        </mxCell>
        <mxCell id="s2aUtu2bZZ-ZvJ1KElSe-13" value="" style="endArrow=none;html=1;rounded=0;fillColor=#dae8fc;strokeColor=#6c8ebf;edgeStyle=orthogonalEdgeStyle;jumpStyle=arc;" edge="1" parent="1" source="s2aUtu2bZZ-ZvJ1KElSe-69" target="s2aUtu2bZZ-ZvJ1KElSe-10">
          <mxGeometry width="50" height="50" relative="1" as="geometry">
            <mxPoint x="330" as="sourcePoint" />
            <mxPoint x="490" y="470" as="targetPoint" />
            <Array as="points">
              <mxPoint x="410" y="190" />
              <mxPoint x="410" y="450" />
            </Array>
          </mxGeometry>
        </mxCell>
        <mxCell id="s2aUtu2bZZ-ZvJ1KElSe-1" value="" style="endArrow=none;html=1;rounded=0;fillColor=#dae8fc;strokeColor=#6c8ebf;edgeStyle=orthogonalEdgeStyle;jumpStyle=arc;" edge="1" parent="1" target="s2aUtu2bZZ-ZvJ1KElSe-10">
          <mxGeometry width="50" height="50" relative="1" as="geometry">
            <mxPoint x="410" y="600" as="sourcePoint" />
            <mxPoint x="400" y="470" as="targetPoint" />
            <Array as="points">
              <mxPoint x="410" y="600" />
              <mxPoint x="410" y="460" />
            </Array>
          </mxGeometry>
        </mxCell>
        <mxCell id="s2aUtu2bZZ-ZvJ1KElSe-3" value="" style="endArrow=none;html=1;rounded=0;fillColor=#f5f5f5;strokeColor=#666666;gradientColor=#b3b3b3;edgeStyle=orthogonalEdgeStyle;jumpStyle=arc;" edge="1" parent="1" target="s2aUtu2bZZ-ZvJ1KElSe-10">
          <mxGeometry width="50" height="50" relative="1" as="geometry">
            <mxPoint x="420" y="600" as="sourcePoint" />
            <mxPoint x="420" y="520" as="targetPoint" />
            <Array as="points">
              <mxPoint x="420" y="470" />
            </Array>
          </mxGeometry>
        </mxCell>
        <mxCell id="s2aUtu2bZZ-ZvJ1KElSe-4" value="" style="endArrow=none;html=1;rounded=0;strokeColor=#994C00;fillColor=#a0522d;noJump=0;orthogonalLoop=0;jumpStyle=arc;edgeStyle=orthogonalEdgeStyle;" edge="1" parent="1">
          <mxGeometry width="50" height="50" relative="1" as="geometry">
            <mxPoint x="430" y="600" as="sourcePoint" />
            <mxPoint x="430" y="520" as="targetPoint" />
            <Array as="points">
              <mxPoint x="430" y="560" />
              <mxPoint x="430" y="560" />
            </Array>
          </mxGeometry>
        </mxCell>
        <mxCell id="s2aUtu2bZZ-ZvJ1KElSe-5" value="" style="endArrow=none;html=1;rounded=0;jumpStyle=arc;edgeStyle=orthogonalEdgeStyle;" edge="1" parent="1" target="s2aUtu2bZZ-ZvJ1KElSe-16">
          <mxGeometry width="50" height="50" relative="1" as="geometry">
            <mxPoint x="440" y="600" as="sourcePoint" />
            <mxPoint x="440" y="320" as="targetPoint" />
            <Array as="points">
              <mxPoint x="440" y="370" />
            </Array>
          </mxGeometry>
        </mxCell>
        <mxCell id="s2aUtu2bZZ-ZvJ1KElSe-6" value="" style="endArrow=none;html=1;rounded=0;fillColor=#fff2cc;strokeColor=#d6b656;edgeStyle=orthogonalEdgeStyle;jumpStyle=arc;" edge="1" parent="1" target="s2aUtu2bZZ-ZvJ1KElSe-11">
          <mxGeometry width="50" height="50" relative="1" as="geometry">
            <mxPoint x="400" y="600" as="sourcePoint" />
            <mxPoint x="370" y="520" as="targetPoint" />
            <Array as="points">
              <mxPoint x="400" y="520" />
            </Array>
          </mxGeometry>
        </mxCell>
        <mxCell id="s2aUtu2bZZ-ZvJ1KElSe-7" value="" style="endArrow=none;html=1;rounded=0;edgeStyle=orthogonalEdgeStyle;jumpStyle=arc;" edge="1" parent="1">
          <mxGeometry width="50" height="50" relative="1" as="geometry">
            <mxPoint x="450" y="600" as="sourcePoint" />
            <mxPoint x="520" y="560" as="targetPoint" />
            <Array as="points">
              <mxPoint x="450" y="560" />
            </Array>
          </mxGeometry>
        </mxCell>
        <mxCell id="s2aUtu2bZZ-ZvJ1KElSe-9" value="" style="endArrow=none;html=1;rounded=0;edgeStyle=orthogonalEdgeStyle;jumpStyle=arc;" edge="1" parent="1">
          <mxGeometry width="50" height="50" relative="1" as="geometry">
            <mxPoint x="320" y="560" as="sourcePoint" />
            <mxPoint x="390" y="600" as="targetPoint" />
            <Array as="points">
              <mxPoint x="320" y="560" />
            </Array>
          </mxGeometry>
        </mxCell>
        <mxCell id="s2aUtu2bZZ-ZvJ1KElSe-10" value="&lt;div&gt;Schalter unten&lt;/div&gt;&lt;div&gt;(mit Licht)&lt;/div&gt;" style="whiteSpace=wrap;html=1;aspect=fixed;" vertex="1" parent="1">
          <mxGeometry x="480" y="400" width="80" height="80" as="geometry" />
        </mxCell>
        <mxCell id="s2aUtu2bZZ-ZvJ1KElSe-11" value="" style="rounded=1;whiteSpace=wrap;html=1;" vertex="1" parent="1">
          <mxGeometry x="320" y="470" width="40" height="60" as="geometry" />
        </mxCell>
        <mxCell id="s2aUtu2bZZ-ZvJ1KElSe-15" value="" style="rounded=1;whiteSpace=wrap;html=1;" vertex="1" parent="1">
          <mxGeometry x="320" y="300" width="40" height="60" as="geometry" />
        </mxCell>
        <mxCell id="s2aUtu2bZZ-ZvJ1KElSe-16" value="&lt;div&gt;Schalter oben&lt;/div&gt;" style="whiteSpace=wrap;html=1;aspect=fixed;" vertex="1" parent="1">
          <mxGeometry x="480" y="300" width="80" height="80" as="geometry" />
        </mxCell>
        <mxCell id="s2aUtu2bZZ-ZvJ1KElSe-17" value="" style="endArrow=none;html=1;rounded=0;strokeColor=#994C00;fillColor=#a0522d;edgeStyle=orthogonalEdgeStyle;jumpStyle=arc;" edge="1" parent="1" source="s2aUtu2bZZ-ZvJ1KElSe-16" target="s2aUtu2bZZ-ZvJ1KElSe-15">
          <mxGeometry width="50" height="50" relative="1" as="geometry">
            <mxPoint x="490" y="480" as="sourcePoint" />
            <mxPoint x="370" y="360" as="targetPoint" />
            <Array as="points">
              <mxPoint x="470" y="340" />
              <mxPoint x="470" y="340" />
            </Array>
          </mxGeometry>
        </mxCell>
        <mxCell id="s2aUtu2bZZ-ZvJ1KElSe-18" value="" style="endArrow=none;html=1;rounded=0;fillColor=#dae8fc;strokeColor=#6c8ebf;edgeStyle=orthogonalEdgeStyle;jumpStyle=arc;" edge="1" parent="1">
          <mxGeometry width="50" height="50" relative="1" as="geometry">
            <mxPoint x="420" y="870" as="sourcePoint" />
            <mxPoint x="420" y="790" as="targetPoint" />
            <Array as="points">
              <mxPoint x="420" y="870" />
              <mxPoint x="420" y="730" />
            </Array>
          </mxGeometry>
        </mxCell>
        <mxCell id="s2aUtu2bZZ-ZvJ1KElSe-19" value="" style="endArrow=none;html=1;rounded=0;fillColor=#f5f5f5;strokeColor=#666666;gradientColor=#b3b3b3;edgeStyle=orthogonalEdgeStyle;jumpStyle=arc;" edge="1" parent="1">
          <mxGeometry width="50" height="50" relative="1" as="geometry">
            <mxPoint x="430" y="870" as="sourcePoint" />
            <mxPoint x="430" y="790" as="targetPoint" />
            <Array as="points">
              <mxPoint x="430" y="830" />
              <mxPoint x="430" y="830" />
            </Array>
          </mxGeometry>
        </mxCell>
        <mxCell id="s2aUtu2bZZ-ZvJ1KElSe-20" value="" style="endArrow=none;html=1;rounded=0;strokeColor=#994C00;fillColor=#a0522d;noJump=0;orthogonalLoop=0;jumpStyle=arc;edgeStyle=orthogonalEdgeStyle;" edge="1" parent="1">
          <mxGeometry width="50" height="50" relative="1" as="geometry">
            <mxPoint x="440" y="870" as="sourcePoint" />
            <mxPoint x="440" y="790" as="targetPoint" />
            <Array as="points">
              <mxPoint x="440" y="830" />
              <mxPoint x="440" y="830" />
            </Array>
          </mxGeometry>
        </mxCell>
        <mxCell id="s2aUtu2bZZ-ZvJ1KElSe-21" value="" style="endArrow=none;html=1;rounded=0;jumpStyle=arc;edgeStyle=orthogonalEdgeStyle;" edge="1" parent="1">
          <mxGeometry width="50" height="50" relative="1" as="geometry">
            <mxPoint x="450" y="870" as="sourcePoint" />
            <mxPoint x="450" y="790" as="targetPoint" />
            <Array as="points">
              <mxPoint x="450" y="830" />
              <mxPoint x="450" y="830" />
            </Array>
          </mxGeometry>
        </mxCell>
        <mxCell id="s2aUtu2bZZ-ZvJ1KElSe-22" value="" style="endArrow=none;html=1;rounded=0;fillColor=#fff2cc;strokeColor=#d6b656;edgeStyle=orthogonalEdgeStyle;jumpStyle=arc;" edge="1" parent="1">
          <mxGeometry width="50" height="50" relative="1" as="geometry">
            <mxPoint x="410" y="870" as="sourcePoint" />
            <mxPoint x="410" y="790" as="targetPoint" />
            <Array as="points">
              <mxPoint x="410" y="790" />
            </Array>
          </mxGeometry>
        </mxCell>
        <mxCell id="s2aUtu2bZZ-ZvJ1KElSe-23" value="" style="endArrow=none;html=1;rounded=0;edgeStyle=orthogonalEdgeStyle;jumpStyle=arc;" edge="1" parent="1">
          <mxGeometry width="50" height="50" relative="1" as="geometry">
            <mxPoint x="460" y="870" as="sourcePoint" />
            <mxPoint x="530" y="830" as="targetPoint" />
            <Array as="points">
              <mxPoint x="460" y="830" />
            </Array>
          </mxGeometry>
        </mxCell>
        <mxCell id="s2aUtu2bZZ-ZvJ1KElSe-24" value="" style="endArrow=none;html=1;rounded=0;edgeStyle=orthogonalEdgeStyle;jumpStyle=arc;" edge="1" parent="1">
          <mxGeometry width="50" height="50" relative="1" as="geometry">
            <mxPoint x="330" y="830" as="sourcePoint" />
            <mxPoint x="400" y="870" as="targetPoint" />
            <Array as="points">
              <mxPoint x="330" y="830" />
            </Array>
          </mxGeometry>
        </mxCell>
        <mxCell id="s2aUtu2bZZ-ZvJ1KElSe-26" value="" style="endArrow=none;html=1;rounded=0;fillColor=#f5f5f5;strokeColor=#666666;gradientColor=#b3b3b3;edgeStyle=orthogonalEdgeStyle;jumpStyle=arc;" edge="1" parent="1">
          <mxGeometry width="50" height="50" relative="1" as="geometry">
            <mxPoint x="340" y="80.01999999999998" as="sourcePoint" />
            <mxPoint x="340" y="0.01999999999998181" as="targetPoint" />
            <Array as="points">
              <mxPoint x="340" y="40.01999999999998" />
              <mxPoint x="340" y="40.01999999999998" />
            </Array>
          </mxGeometry>
        </mxCell>
        <mxCell id="s2aUtu2bZZ-ZvJ1KElSe-28" value="" style="endArrow=none;html=1;rounded=0;jumpStyle=arc;edgeStyle=orthogonalEdgeStyle;" edge="1" parent="1">
          <mxGeometry width="50" height="50" relative="1" as="geometry">
            <mxPoint x="360" y="80.01999999999998" as="sourcePoint" />
            <mxPoint x="360" y="0.01999999999998181" as="targetPoint" />
            <Array as="points">
              <mxPoint x="360" y="40.01999999999998" />
              <mxPoint x="360" y="40.01999999999998" />
            </Array>
          </mxGeometry>
        </mxCell>
        <mxCell id="s2aUtu2bZZ-ZvJ1KElSe-30" value="" style="endArrow=none;html=1;rounded=0;edgeStyle=orthogonalEdgeStyle;jumpStyle=arc;" edge="1" parent="1">
          <mxGeometry width="50" height="50" relative="1" as="geometry">
            <mxPoint x="370" as="sourcePoint" />
            <mxPoint x="410" y="40" as="targetPoint" />
            <Array as="points">
              <mxPoint x="370" y="40.01999999999998" />
            </Array>
          </mxGeometry>
        </mxCell>
        <mxCell id="s2aUtu2bZZ-ZvJ1KElSe-31" value="" style="endArrow=none;html=1;rounded=0;edgeStyle=orthogonalEdgeStyle;jumpStyle=arc;" edge="1" parent="1">
          <mxGeometry width="50" height="50" relative="1" as="geometry">
            <mxPoint x="240" y="40.01999999999998" as="sourcePoint" />
            <mxPoint x="310" as="targetPoint" />
            <Array as="points">
              <mxPoint x="240" y="40.01999999999998" />
            </Array>
          </mxGeometry>
        </mxCell>
        <mxCell id="s2aUtu2bZZ-ZvJ1KElSe-61" value="" style="endArrow=none;html=1;rounded=0;fillColor=#dae8fc;strokeColor=#6c8ebf;edgeStyle=orthogonalEdgeStyle;jumpStyle=arc;" edge="1" parent="1" source="s2aUtu2bZZ-ZvJ1KElSe-69">
          <mxGeometry width="50" height="50" relative="1" as="geometry">
            <mxPoint x="490" y="80.01999999999998" as="sourcePoint" />
            <mxPoint x="490" y="0.01999999999998181" as="targetPoint" />
            <Array as="points">
              <mxPoint x="490" y="170" />
            </Array>
          </mxGeometry>
        </mxCell>
        <mxCell id="s2aUtu2bZZ-ZvJ1KElSe-62" value="" style="endArrow=none;html=1;rounded=0;fillColor=#f5f5f5;strokeColor=#666666;gradientColor=#b3b3b3;edgeStyle=orthogonalEdgeStyle;jumpStyle=arc;" edge="1" parent="1">
          <mxGeometry width="50" height="50" relative="1" as="geometry">
            <mxPoint x="500" y="80.01999999999998" as="sourcePoint" />
            <mxPoint x="500" y="0.01999999999998181" as="targetPoint" />
            <Array as="points">
              <mxPoint x="500" y="40.01999999999998" />
              <mxPoint x="500" y="40.01999999999998" />
            </Array>
          </mxGeometry>
        </mxCell>
        <mxCell id="s2aUtu2bZZ-ZvJ1KElSe-63" value="" style="endArrow=none;html=1;rounded=0;strokeColor=#994C00;fillColor=#a0522d;noJump=0;orthogonalLoop=0;jumpStyle=arc;edgeStyle=orthogonalEdgeStyle;" edge="1" parent="1" source="s2aUtu2bZZ-ZvJ1KElSe-15">
          <mxGeometry width="50" height="50" relative="1" as="geometry">
            <mxPoint x="510" y="80.01999999999998" as="sourcePoint" />
            <mxPoint x="510" y="0.01999999999998181" as="targetPoint" />
            <Array as="points">
              <mxPoint x="440" y="330" />
              <mxPoint x="440" y="270" />
              <mxPoint x="510" y="270" />
            </Array>
          </mxGeometry>
        </mxCell>
        <mxCell id="s2aUtu2bZZ-ZvJ1KElSe-64" value="" style="endArrow=none;html=1;rounded=0;jumpStyle=arc;edgeStyle=orthogonalEdgeStyle;" edge="1" parent="1">
          <mxGeometry width="50" height="50" relative="1" as="geometry">
            <mxPoint x="520" y="80.01999999999998" as="sourcePoint" />
            <mxPoint x="520" y="0.01999999999998181" as="targetPoint" />
            <Array as="points">
              <mxPoint x="520" y="40.01999999999998" />
              <mxPoint x="520" y="40.01999999999998" />
            </Array>
          </mxGeometry>
        </mxCell>
        <mxCell id="s2aUtu2bZZ-ZvJ1KElSe-65" value="" style="endArrow=none;html=1;rounded=0;fillColor=#fff2cc;strokeColor=#d6b656;edgeStyle=orthogonalEdgeStyle;jumpStyle=arc;" edge="1" parent="1" source="s2aUtu2bZZ-ZvJ1KElSe-68">
          <mxGeometry width="50" height="50" relative="1" as="geometry">
            <mxPoint x="480" y="80.01999999999998" as="sourcePoint" />
            <mxPoint x="480" y="0.01999999999998181" as="targetPoint" />
            <Array as="points">
              <mxPoint x="480" y="260" />
            </Array>
          </mxGeometry>
        </mxCell>
        <mxCell id="s2aUtu2bZZ-ZvJ1KElSe-66" value="" style="endArrow=none;html=1;rounded=0;edgeStyle=orthogonalEdgeStyle;jumpStyle=arc;" edge="1" parent="1">
          <mxGeometry width="50" height="50" relative="1" as="geometry">
            <mxPoint x="530" as="sourcePoint" />
            <mxPoint x="600" y="40.01999999999998" as="targetPoint" />
            <Array as="points">
              <mxPoint x="530" y="40.01999999999998" />
            </Array>
          </mxGeometry>
        </mxCell>
        <mxCell id="s2aUtu2bZZ-ZvJ1KElSe-67" value="" style="endArrow=none;html=1;rounded=0;edgeStyle=orthogonalEdgeStyle;jumpStyle=arc;" edge="1" parent="1">
          <mxGeometry width="50" height="50" relative="1" as="geometry">
            <mxPoint x="430" y="40" as="sourcePoint" />
            <mxPoint x="470" as="targetPoint" />
            <Array as="points">
              <mxPoint x="470" y="40" />
            </Array>
          </mxGeometry>
        </mxCell>
        <mxCell id="s2aUtu2bZZ-ZvJ1KElSe-68" value="" style="rounded=1;whiteSpace=wrap;html=1;" vertex="1" parent="1">
          <mxGeometry x="320" y="220" width="40" height="60" as="geometry" />
        </mxCell>
        <mxCell id="s2aUtu2bZZ-ZvJ1KElSe-27" value="" style="endArrow=none;html=1;rounded=0;strokeColor=#994C00;fillColor=#a0522d;noJump=0;orthogonalLoop=0;jumpStyle=arc;edgeStyle=orthogonalEdgeStyle;" edge="1" parent="1" source="s2aUtu2bZZ-ZvJ1KElSe-15">
          <mxGeometry width="50" height="50" relative="1" as="geometry">
            <mxPoint x="350" y="80.01999999999998" as="sourcePoint" />
            <mxPoint x="350" y="0.01999999999998181" as="targetPoint" />
            <Array as="points">
              <mxPoint x="420" y="320" />
              <mxPoint x="420" y="90" />
              <mxPoint x="350" y="90" />
            </Array>
          </mxGeometry>
        </mxCell>
        <mxCell id="s2aUtu2bZZ-ZvJ1KElSe-69" value="" style="rounded=1;whiteSpace=wrap;html=1;" vertex="1" parent="1">
          <mxGeometry x="320" y="140" width="40" height="60" as="geometry" />
        </mxCell>
        <mxCell id="s2aUtu2bZZ-ZvJ1KElSe-70" value="" style="endArrow=none;html=1;rounded=0;fillColor=#dae8fc;strokeColor=#6c8ebf;edgeStyle=orthogonalEdgeStyle;jumpStyle=arc;" edge="1" parent="1" source="s2aUtu2bZZ-ZvJ1KElSe-69">
          <mxGeometry width="50" height="50" relative="1" as="geometry">
            <mxPoint x="370" y="180" as="sourcePoint" />
            <mxPoint x="330" as="targetPoint" />
            <Array as="points">
              <mxPoint x="410" y="160" />
              <mxPoint x="410" y="100" />
              <mxPoint x="330" y="100" />
            </Array>
          </mxGeometry>
        </mxCell>
      </root>
    </mxGraphModel>
  </diagram>
</mxfile>
